<svg class="svg-icon" style="width: 1em; height: 1em;vertical-align: middle;fill: currentColor;overflow: hidden;" viewBox="0 0 1024 1024" version="1.1" xmlns="http://www.w3.org/2000/svg"><path d="M498.346667 597.333333c-47.786667 0-85.333333-37.546667-85.333334-85.333333s37.546667-85.333333 85.333334-85.333333 85.333333 37.546667 85.333333 85.333333-40.96 85.333333-85.333333 85.333333z m0-136.533333c-27.306667 0-51.2 23.893333-51.2 51.2s23.893333 51.2 51.2 51.2 51.2-23.893333 51.2-51.2-23.893333-51.2-51.2-51.2z" fill="" /><path d="M498.346667 1006.933333c-105.813333 0-187.733333-218.453333-187.733334-494.933333S392.533333 17.066667 498.346667 17.066667c20.48 0 37.546667 6.826667 58.026666 20.48 3.413333 3.413333 6.826667 6.826667 6.826667 10.24s0 10.24-3.413333 13.653333c-3.413333 3.413333-6.826667 10.24-6.826667 20.48 0 23.893333 23.893333 40.96 47.786667 30.72 6.826667-3.413333 17.066667 0 20.48 10.24 44.373333 92.16 68.266667 235.52 68.266666 385.706667-3.413333 279.893333-88.746667 498.346667-191.146666 498.346666z m0-955.733333c-71.68 0-153.6 187.733333-153.6 460.8s81.92 460.8 153.6 460.8S651.946667 785.066667 651.946667 512c0-139.946667-20.48-269.653333-58.026667-358.4-40.96 6.826667-78.506667-27.306667-78.506667-68.266667 0-10.24 3.413333-20.48 6.826667-27.306666-10.24-3.413333-17.066667-6.826667-23.893333-6.826667z" fill="" /><path d="M583.68 153.6c-37.546667 0-68.266667-30.72-68.266667-68.266667s30.72-68.266667 68.266667-68.266666 68.266667 30.72 68.266667 68.266666-30.72 68.266667-68.266667 68.266667z m0-102.4c-20.48 0-34.133333 13.653333-34.133333 34.133333s13.653333 34.133333 34.133333 34.133334 34.133333-13.653333 34.133333-34.133334-17.066667-34.133333-34.133333-34.133333zM774.826667 808.96c-3.413333 0-3.413333 0 0 0-105.813333-10.24-238.933333-58.026667-368.64-133.12-238.933333-139.946667-385.706667-317.44-334.506667-409.6 51.2-92.16 283.306667-54.613333 522.24 85.333333s385.706667 317.44 334.506667 409.6c-10.24 17.066667-27.306667 30.72-47.786667 37.546667-3.413333 3.413333-10.24 0-13.653333 0l-10.24-10.24c-3.413333-6.826667-6.826667-13.653333-13.653334-17.066667-6.826667-3.413333-17.066667-6.826667-27.306666-3.413333-10.24 3.413333-17.066667 6.826667-20.48 17.066667-3.413333 3.413333-3.413333 6.826667-3.413334 10.24-3.413333 6.826667-10.24 13.653333-17.066666 13.653333zM187.733333 249.173333c-47.786667 0-78.506667 10.24-92.16 34.133334-37.546667 61.44 88.746667 228.693333 320.853334 361.813333 122.88 71.68 245.76 116.053333 341.333333 126.293333 0-3.413333 3.413333-6.826667 3.413333-6.826666 10.24-17.066667 23.893333-27.306667 40.96-30.72 17.066667-3.413333 37.546667-3.413333 51.2 6.826666 6.826667 3.413333 17.066667 10.24 20.48 20.48 6.826667-3.413333 13.653333-10.24 17.066667-17.066666 37.546667-61.44-88.746667-228.693333-320.853333-361.813334-150.186667-92.16-293.546667-133.12-382.293334-133.12z" fill="" /><path d="M822.613333 866.986667c-10.24 0-23.893333-3.413333-34.133333-10.24-17.066667-10.24-27.306667-23.893333-30.72-40.96s-3.413333-37.546667 6.826667-51.2 23.893333-27.306667 40.96-30.72c17.066667-3.413333 37.546667-3.413333 51.2 6.826666s27.306667 23.893333 30.72 40.96 3.413333 37.546667-6.826667 51.2c-10.24 23.893333-34.133333 34.133333-58.026667 34.133334z m0-102.4h-10.24c-10.24 3.413333-17.066667 6.826667-20.48 17.066666-10.24 17.066667-3.413333 37.546667 13.653334 47.786667 17.066667 10.24 37.546667 3.413333 47.786666-13.653333 3.413333-6.826667 6.826667-17.066667 3.413334-27.306667-3.413333-10.24-6.826667-17.066667-17.066667-20.48-3.413333 0-10.24-3.413333-17.066667-3.413333zM252.586667 791.893333c-6.826667 0-17.066667-6.826667-17.066667-13.653333 0-3.413333-3.413333-6.826667-3.413333-10.24-10.24-17.066667-30.72-20.48-47.786667-13.653333-10.24 3.413333-13.653333 13.653333-13.653333 17.066666 0 3.413333-3.413333 6.826667-10.24 10.24-3.413333 3.413333-10.24 3.413333-13.653334 0-20.48-10.24-37.546667-20.48-47.786666-37.546666-27.306667-47.786667-3.413333-116.053333 61.44-194.56 64.853333-75.093333 160.426667-150.186667 273.066666-215.04 238.933333-139.946667 471.04-177.493333 522.24-85.333334s-95.573333 269.653333-334.506666 409.6c-133.12 75.093333-266.24 122.88-368.64 133.12z m-51.2-78.506666c23.893333 0 47.786667 13.653333 58.026666 34.133333 0 3.413333 3.413333 3.413333 3.413334 6.826667 95.573333-10.24 218.453333-58.026667 341.333333-126.293334 235.52-136.533333 358.4-300.373333 320.853333-361.813333C887.466667 204.8 682.666667 228.693333 450.56 365.226667c-109.226667 61.44-201.386667 136.533333-262.826667 208.213333-54.613333 64.853333-78.506667 122.88-58.026666 153.6 3.413333 6.826667 10.24 13.653333 17.066666 17.066667l20.48-20.48c10.24-6.826667 20.48-10.24 34.133334-10.24z" fill="" /><path d="M201.386667 849.92c-6.826667 0-10.24 0-17.066667-3.413333-17.066667-3.413333-30.72-17.066667-40.96-30.72-10.24-17.066667-10.24-34.133333-6.826667-51.2 3.413333-17.066667 17.066667-30.72 30.72-40.96 34.133333-20.48 75.093333-6.826667 92.16 23.893333 10.24 17.066667 10.24 34.133333 6.826667 51.2s-17.066667 30.72-30.72 40.96c-10.24 6.826667-23.893333 10.24-34.133333 10.24z m0-102.4c-6.826667 0-10.24 0-17.066667 3.413333-17.066667 10.24-20.48 30.72-13.653333 47.786667 3.413333 6.826667 10.24 13.653333 20.48 17.066667 10.24 3.413333 17.066667 0 27.306666-3.413334 6.826667-3.413333 13.653333-10.24 17.066667-20.48s0-17.066667-3.413333-27.306666c-6.826667-10.24-20.48-17.066667-30.72-17.066667z" fill="" /></svg>