<svg class="svg-icon" style="width: 1em; height: 1em;vertical-align: middle;fill: currentColor;overflow: hidden;" viewBox="0 0 1024 1024" version="1.1" xmlns="http://www.w3.org/2000/svg"><path d="M823.296 861.184c-8.704 0-16.896-3.072-23.552-9.728L176.128 228.352c-12.8-12.8-12.8-34.304 0-47.104 12.8-12.8 34.304-12.8 47.104 0l623.104 623.616c12.8 12.8 12.8 34.304 0 47.104-6.144 6.144-14.848 9.216-23.04 9.216z" fill="" /><path d="M199.68 861.184c-8.704 0-16.896-3.072-23.552-9.728-12.8-12.8-12.8-34.304 0-47.104L799.744 181.248c12.8-12.8 34.304-12.8 47.104 0 12.8 12.8 12.8 34.304 0 47.104L223.232 851.456c-6.656 6.656-14.848 9.728-23.552 9.728z" fill="" /></svg>